<mxfile host="app.diagrams.net" modified="2021-11-03T18:27:24.123Z" agent="5.0 (X11)" etag="0vSb2FmnAvb_uvr4UuOc" version="15.5.1" type="github">
  <diagram id="R2lEEEUBdFMjLlhIrx00" name="Page-1">
    <mxGraphModel dx="750" dy="1633" grid="1" gridSize="10" guides="1" tooltips="1" connect="1" arrows="1" fold="1" page="1" pageScale="1" pageWidth="850" pageHeight="1100" math="0" shadow="0" extFonts="Permanent Marker^https://fonts.googleapis.com/css?family=Permanent+Marker">
      <root>
        <mxCell id="0" />
        <mxCell id="1" parent="0" />
        <mxCell id="-7xZDjTyMHG0GDm5CmOJ-1" value="Volunteer" style="rounded=0;whiteSpace=wrap;html=1;" parent="1" vertex="1">
          <mxGeometry x="130" y="260" width="120" height="60" as="geometry" />
        </mxCell>
        <mxCell id="-7xZDjTyMHG0GDm5CmOJ-4" value="&lt;u&gt;Telephone Number&lt;/u&gt;" style="rounded=1;whiteSpace=wrap;html=1;arcSize=50;" parent="1" vertex="1">
          <mxGeometry x="190" y="100" width="90" height="30" as="geometry" />
        </mxCell>
        <mxCell id="-7xZDjTyMHG0GDm5CmOJ-5" value="Name" style="rounded=1;whiteSpace=wrap;html=1;arcSize=50;" parent="1" vertex="1">
          <mxGeometry x="190" y="150" width="90" height="20" as="geometry" />
        </mxCell>
        <mxCell id="-7xZDjTyMHG0GDm5CmOJ-6" value="Address" style="rounded=1;whiteSpace=wrap;html=1;arcSize=50;" parent="1" vertex="1">
          <mxGeometry x="190" y="200" width="90" height="20" as="geometry" />
        </mxCell>
        <mxCell id="LxinYFkP1E7DIP9BxHzb-1" value="Task" style="rounded=0;whiteSpace=wrap;html=1;" vertex="1" parent="1">
          <mxGeometry x="390" y="260" width="120" height="60" as="geometry" />
        </mxCell>
        <mxCell id="LxinYFkP1E7DIP9BxHzb-2" value="" style="group" vertex="1" connectable="0" parent="1">
          <mxGeometry x="160" y="120" width="30" height="90" as="geometry" />
        </mxCell>
        <mxCell id="-7xZDjTyMHG0GDm5CmOJ-2" value="" style="endArrow=none;html=1;rounded=0;exitX=0.25;exitY=0;exitDx=0;exitDy=0;" parent="LxinYFkP1E7DIP9BxHzb-2" source="-7xZDjTyMHG0GDm5CmOJ-1" edge="1">
          <mxGeometry width="50" height="50" relative="1" as="geometry">
            <mxPoint x="3" y="130" as="sourcePoint" />
            <mxPoint as="targetPoint" />
          </mxGeometry>
        </mxCell>
        <mxCell id="-7xZDjTyMHG0GDm5CmOJ-3" value="" style="endArrow=none;html=1;rounded=0;" parent="LxinYFkP1E7DIP9BxHzb-2" edge="1">
          <mxGeometry width="50" height="50" relative="1" as="geometry">
            <mxPoint as="sourcePoint" />
            <mxPoint x="30" as="targetPoint" />
          </mxGeometry>
        </mxCell>
        <mxCell id="-7xZDjTyMHG0GDm5CmOJ-7" value="" style="endArrow=none;html=1;rounded=0;entryX=0;entryY=0.5;entryDx=0;entryDy=0;" parent="LxinYFkP1E7DIP9BxHzb-2" target="-7xZDjTyMHG0GDm5CmOJ-5" edge="1">
          <mxGeometry width="50" height="50" relative="1" as="geometry">
            <mxPoint y="40" as="sourcePoint" />
            <mxPoint x="-10" y="50" as="targetPoint" />
          </mxGeometry>
        </mxCell>
        <mxCell id="-7xZDjTyMHG0GDm5CmOJ-8" value="" style="endArrow=none;html=1;rounded=0;entryX=0;entryY=0.5;entryDx=0;entryDy=0;" parent="LxinYFkP1E7DIP9BxHzb-2" target="-7xZDjTyMHG0GDm5CmOJ-6" edge="1">
          <mxGeometry width="50" height="50" relative="1" as="geometry">
            <mxPoint y="90" as="sourcePoint" />
            <mxPoint x="200" y="470" as="targetPoint" />
          </mxGeometry>
        </mxCell>
        <mxCell id="LxinYFkP1E7DIP9BxHzb-3" value="" style="endArrow=none;html=1;rounded=0;" edge="1" parent="1">
          <mxGeometry width="50" height="50" relative="1" as="geometry">
            <mxPoint x="440" y="260" as="sourcePoint" />
            <mxPoint x="440" y="120" as="targetPoint" />
          </mxGeometry>
        </mxCell>
        <mxCell id="LxinYFkP1E7DIP9BxHzb-4" value="" style="endArrow=none;html=1;rounded=0;" edge="1" parent="1">
          <mxGeometry width="50" height="50" relative="1" as="geometry">
            <mxPoint x="440" y="120" as="sourcePoint" />
            <mxPoint x="480" y="120" as="targetPoint" />
          </mxGeometry>
        </mxCell>
        <mxCell id="LxinYFkP1E7DIP9BxHzb-5" value="" style="endArrow=none;html=1;rounded=0;" edge="1" parent="1">
          <mxGeometry width="50" height="50" relative="1" as="geometry">
            <mxPoint x="440" y="160" as="sourcePoint" />
            <mxPoint x="480" y="160" as="targetPoint" />
          </mxGeometry>
        </mxCell>
        <mxCell id="LxinYFkP1E7DIP9BxHzb-8" value="&lt;u&gt;Task Code&lt;br&gt;&lt;/u&gt;" style="rounded=1;whiteSpace=wrap;html=1;arcSize=50;" vertex="1" parent="1">
          <mxGeometry x="480" y="110" width="90" height="20" as="geometry" />
        </mxCell>
        <mxCell id="LxinYFkP1E7DIP9BxHzb-9" value="Task Description" style="rounded=1;whiteSpace=wrap;html=1;arcSize=50;" vertex="1" parent="1">
          <mxGeometry x="480" y="150" width="90" height="20" as="geometry" />
        </mxCell>
        <mxCell id="LxinYFkP1E7DIP9BxHzb-10" value="Task Type" style="rounded=1;whiteSpace=wrap;html=1;arcSize=50;" vertex="1" parent="1">
          <mxGeometry x="480" y="190" width="90" height="20" as="geometry" />
        </mxCell>
        <mxCell id="LxinYFkP1E7DIP9BxHzb-11" value="Task Status" style="rounded=1;whiteSpace=wrap;html=1;arcSize=50;" vertex="1" parent="1">
          <mxGeometry x="480" y="230" width="90" height="20" as="geometry" />
        </mxCell>
        <mxCell id="LxinYFkP1E7DIP9BxHzb-13" value="" style="endArrow=none;html=1;rounded=0;entryX=0;entryY=0.5;entryDx=0;entryDy=0;" edge="1" parent="1" target="LxinYFkP1E7DIP9BxHzb-10">
          <mxGeometry width="50" height="50" relative="1" as="geometry">
            <mxPoint x="440" y="200" as="sourcePoint" />
            <mxPoint x="410" y="190" as="targetPoint" />
          </mxGeometry>
        </mxCell>
        <mxCell id="LxinYFkP1E7DIP9BxHzb-14" value="" style="endArrow=none;html=1;rounded=0;entryX=0;entryY=0.5;entryDx=0;entryDy=0;" edge="1" parent="1" target="LxinYFkP1E7DIP9BxHzb-11">
          <mxGeometry width="50" height="50" relative="1" as="geometry">
            <mxPoint x="440" y="240" as="sourcePoint" />
            <mxPoint x="410" y="650" as="targetPoint" />
          </mxGeometry>
        </mxCell>
      </root>
    </mxGraphModel>
  </diagram>
</mxfile>
